<svg width="183" height="52" viewBox="0 0 183 52" fill="none" xmlns="http://www.w3.org/2000/svg">
<path d="M30.5 0L45.6554 26.25H15.3446L30.5 0Z" fill="#3E3E3E"/>
<path d="M15.5871 26L31.1741 52H23.655L15.4272 36.8952L7.19935 52H0L15.5871 26Z" fill="#3E3E3E"/>
<path d="M45.4129 26L61 52H53.4809L45.2531 36.8952L37.0252 52H29.8259L45.4129 26Z" fill="#3E3E3E"/>
<path d="M118.587 26L134.174 52H126.655L118.427 36.8952L110.199 52H103L118.587 26Z" fill="#3E3E3E"/>
<path d="M148.413 26L164 52H156.481L148.253 36.8952L140.025 52H132.826L148.413 26Z" fill="#3E3E3E"/>
<path d="M64.5871 0L80.1741 26H72.655L64.4272 10.8952L56.1994 26H49L64.5871 0Z" fill="#3E3E3E"/>
<path d="M94.4129 0L110 26H102.481L94.2531 10.8952L86.0252 26H78.8259L94.4129 0Z" fill="#3E3E3E"/>
<path d="M103.117 0.412659L115.617 0.412658L130.117 25.8442L117.644 25.8442L103.117 0.412659Z" fill="#3E3E3E"/>
<path d="M49.1174 26.4127H61.6174L76.1174 51.8442H63.6437L49.1174 26.4127Z" fill="#3E3E3E"/>
<path d="M75.1174 26.4127H87.6174L102.117 51.8442H89.6437L75.1174 26.4127Z" fill="#3E3E3E"/>
<path d="M61 26.4127H75.5L79 33H65L61 26.4127Z" fill="#3E3E3E"/>
<path d="M72 45.2787H86.5L90 51.866H76L72 45.2787Z" fill="#3E3E3E"/>
<path d="M146.5 14.5L153 14.5L155.5 19L149 19L146.5 14.5Z" fill="#3E3E3E"/>
<path d="M126.117 0.412659L138.617 0.412658L153.117 25.8442L140.644 25.8442L126.117 0.412659Z" fill="#3E3E3E"/>
<path d="M144.617 0.412659L157.117 0.412658L159.221 4L153 14.5L165.149 14.5L171.617 25.8442L159.144 25.8442L153 14.5L149.132 8L144.617 0.412659Z" fill="#3E3E3E"/>
<path d="M126 0H156.942L159.221 4L156.851 8H149.132H130.558L126 0Z" fill="#3E3E3E"/>
<path d="M149.12 26.3992H161.913L177 52H164.5L149.12 26.3992Z" fill="#3E3E3E"/>
<path d="M149 26H180.667L183 29.8693L178.68 43.4121L172.675 33.7387H153.665L149 26Z" fill="#3E3E3E"/>
<path d="M169.981 40.0264H176.633L178.68 43.4121H172.028L169.981 40.0264Z" fill="#3E3E3E"/>
</svg>
